<svg width="14" height="14" viewBox="0 0 14 14" fill="none" xmlns="http://www.w3.org/2000/svg">
<path fill-rule="evenodd" clip-rule="evenodd" d="M5.9311 0.330811C6.44979 0.330811 6.9468 0.539086 7.31363 0.910389L12.8905 6.55512C13.0721 6.7389 13.2162 6.9571 13.3146 7.19727C13.4129 7.43743 13.4635 7.69486 13.4635 7.95482C13.4635 8.21479 13.4129 8.47221 13.3146 8.71238C13.2162 8.95255 13.0721 9.17075 12.8905 9.35453L9.22999 13.0596C9.04843 13.2434 8.83285 13.3893 8.59557 13.4888C8.35829 13.5883 8.10397 13.6396 7.84713 13.6396C7.59028 13.6396 7.33596 13.5883 7.09868 13.4888C6.8614 13.3893 6.64582 13.2434 6.46426 13.0596L0.887426 7.41484C0.705876 7.23107 0.561866 7.0129 0.463618 6.7728C0.36537 6.53269 0.314808 6.27535 0.314819 6.01547V2.30976C0.314819 1.78491 0.520807 1.28156 0.887468 0.910431C1.25413 0.539306 1.75143 0.330811 2.26996 0.330811H5.9311ZM5.9311 1.66164H2.26996C2.10014 1.66164 1.93727 1.72993 1.81719 1.85147C1.69711 1.97302 1.62964 2.13787 1.62964 2.30976V6.01547C1.62964 6.18714 1.69736 6.35217 1.81701 6.47394L7.39384 12.1187C7.64366 12.3715 8.04994 12.3715 8.29975 12.1187L11.9609 8.41296C12.0204 8.35277 12.0676 8.2813 12.0998 8.20264C12.132 8.12397 12.1486 8.03965 12.1486 7.95449C12.1486 7.86934 12.132 7.78501 12.0998 7.70635C12.0676 7.62768 12.0204 7.55621 11.9609 7.49602L6.38405 1.85129C6.32448 1.79104 6.25375 1.74327 6.17591 1.71073C6.09807 1.67819 6.01465 1.66151 5.93044 1.66164H5.9311ZM4.2593 2.99248C4.60801 2.99248 4.94244 3.13269 5.18902 3.38227C5.43559 3.63185 5.57412 3.97035 5.57412 4.32331C5.57412 4.67627 5.43559 5.01477 5.18902 5.26435C4.94244 5.51393 4.60801 5.65415 4.2593 5.65415C3.91058 5.65415 3.57615 5.51393 3.32957 5.26435C3.083 5.01477 2.94447 4.67627 2.94447 4.32331C2.94447 3.97035 3.083 3.63185 3.32957 3.38227C3.57615 3.13269 3.91058 2.99248 4.2593 2.99248V2.99248Z" fill="#7AC751"/>
</svg>